<?xml version="1.0" encoding="UTF-8" standalone="no"?>
<!DOCTYPE svg PUBLIC "-//W3C//DTD SVG 1.1//EN" "http://www.w3.org/Graphics/SVG/1.1/DTD/svg11.dtd">
<svg version="1.1" xmlns="http://www.w3.org/2000/svg" xmlns:xlink="http://www.w3.org/1999/xlink" preserveAspectRatio="xMidYMid meet" viewBox="0 0 640 640" width="640" height="640"><defs><path d="M265 318.75C265 349.77 290.23 375 321.25 375C352.27 375 377.5 349.77 377.5 318.75C377.5 287.73 352.27 262.5 321.25 262.5C290.23 262.5 265 287.73 265 318.75Z" id="c2eUUfN2gR"></path><path d="M0 318.75C0 494.51 142.99 640 318.75 640C494.51 640 640 494.51 640 318.75C640 142.99 494.51 0 318.75 0C142.99 0 0 142.99 0 318.75ZM391.23 380.51C374.04 399.96 349.19 412.5 321.25 412.5C269.56 412.5 227.5 370.44 227.5 318.75C227.5 267.06 269.56 225 321.25 225C342.43 225 361.78 232.33 377.5 244.23C377.5 244.18 377.5 243.8 377.5 243.75C377.5 233.39 385.89 225 396.25 225C406.61 225 415 233.39 415 243.75C415 253.13 415 328.13 415 337.5C415 358.17 431.83 375 452.5 375C473.17 375 490 358.17 490 337.5C490 212.01 406.96 150 321.25 150C228.2 150 152.5 225.7 152.5 318.75C152.5 411.8 228.2 487.5 321.25 487.5C358.75 487.5 394.22 475.49 423.83 452.75C443.6 437.65 466.25 467.45 446.68 482.48C410.44 510.3 367.08 525 321.25 525C207.52 525 115 432.48 115 318.75C115 205.02 207.52 112.5 321.25 112.5C424.87 112.5 527.5 188.92 527.5 337.5C527.5 378.86 493.86 412.5 452.5 412.5C427.16 412.5 404.81 399.8 391.23 380.51Z" id="buRPA2lop"></path></defs><g><g><g><use xlink:href="#c2eUUfN2gR" opacity="1" fill="#ffffff" fill-opacity="1"></use><g><use xlink:href="#c2eUUfN2gR" opacity="1" fill-opacity="0" stroke="#000000" stroke-width="1" stroke-opacity="0"></use></g></g><g><use xlink:href="#buRPA2lop" opacity="1" fill="#ffffff" fill-opacity="1"></use><g><use xlink:href="#buRPA2lop" opacity="1" fill-opacity="0" stroke="#000000" stroke-width="1" stroke-opacity="0"></use></g></g></g></g></svg>